<?xml version="1.0" encoding="utf-8"?>
<!-- Generator: Adobe Illustrator 16.0.0, SVG Export Plug-In . SVG Version: 6.00 Build 0)  -->
<!DOCTYPE svg PUBLIC "-//W3C//DTD SVG 1.1//EN" "http://www.w3.org/Graphics/SVG/1.1/DTD/svg11.dtd">
<svg version="1.1" id="Layer_1" xmlns="http://www.w3.org/2000/svg" xmlns:xlink="http://www.w3.org/1999/xlink" x="0px" y="0px"
	 width="602.449px" height="600px" viewBox="0 0 602.449 600" enable-background="new 0 0 602.449 600" xml:space="preserve">
<path fill="#FFC107" d="M587.449,229v142h-215v214h-142V371h-215V229h215V15h142v214H587.449z M301.351,217.756
	c-45.549,0-82.475,36.674-82.475,81.913c0,45.24,36.926,81.915,82.475,81.915c45.548,0,82.474-36.675,82.474-81.915
	C383.824,254.43,346.898,217.756,301.351,217.756z"/>
<path fill="#FFC107" d="M32.449,342.958c0,15.487-7.094,28.042-16,28.042l0,0c-8.906,0-16-12.555-16-28.042v-85.916
	c0-15.487,7.094-28.042,16-28.042l0,0c8.906,0,16,12.555,16,28.042V342.958z"/>
<path fill="#FFC107" d="M603.449,342.958c0,15.487-7.094,28.042-16,28.042l0,0c-8.906,0-16-12.555-16-28.042v-85.916
	c0-15.487,7.094-28.042,16-28.042l0,0c8.906,0,16,12.555,16,28.042V342.958z"/>
<path fill="#FFC107" d="M344.407,0c15.487,0,28.042,7.094,28.042,16l0,0c0,8.906-12.555,16-28.042,16h-85.916
	c-15.487,0-28.042-7.094-28.042-16l0,0c0-8.906,12.555-16,28.042-16H344.407z"/>
<path fill="#FFC107" d="M344.407,569c15.487,0,28.042,7.094,28.042,16l0,0c0,8.906-12.555,16-28.042,16h-85.916
	c-15.487,0-28.042-7.094-28.042-16l0,0c0-8.906,12.555-16,28.042-16H344.407z"/>
<g>
</g>
<g>
</g>
<g>
</g>
<g>
</g>
<g>
</g>
<g>
</g>
<g>
</g>
<g>
</g>
<g>
</g>
<g>
</g>
<g>
</g>
<g>
</g>
<g>
</g>
<g>
</g>
<g>
</g>
</svg>
