<?xml version="1.0" standalone="yes"?>

<svg version="1.1" viewBox="0.0 0.0 552.9685039370079 721.2624671916011" fill="none" stroke="none" stroke-linecap="square" stroke-miterlimit="10" xmlns="http://www.w3.org/2000/svg" xmlns:xlink="http://www.w3.org/1999/xlink"><clipPath id="p.0"><path d="m0 0l552.9685 0l0 721.26245l-552.9685 0l0 -721.26245z" clip-rule="nonzero"></path></clipPath><g clip-path="url(#p.0)"><path fill="#000000" fill-opacity="0.0" d="m0 0l552.9685 0l0 721.26245l-552.9685 0z" fill-rule="nonzero"></path><path fill="#ff0000" d="m0.6320117 322.76297l0 0c0 -178.25685 123.430756 -322.76257 275.6903 -322.76257l0 0c73.117615 0 143.24051 34.005245 194.94247 94.53497c51.701996 60.529716 80.74783 142.62564 80.74783 228.2276l0 0c0 178.25684 -123.430756 322.76254 -275.6903 322.76254l0 0c-152.25955 0 -275.6903 -144.5057 -275.6903 -322.76254z" fill-rule="nonzero"></path><path fill="#ff0000" d="m232.81746 720.00586l43.504868 -101.19232l43.504852 101.19232z" fill-rule="nonzero"></path><path fill="#000000" fill-opacity="0.0" d="m76.92345 114.44392l398.7964 0l0 431.7412l-398.7964 0z" fill-rule="nonzero"></path><path fill="#ffffff" d="m107.90782 159.93767l0 54.40625l3.859375 0l0 11.5l-20.171875 0l0 -11.5l3.84375 0l0 -54.40625l-3.84375 0l0 -11.5l20.171875 0l0 11.5l-3.859375 0zm12.81218 33.40625l0 -44.90625l13.0 0l0 44.90625q0 10.28125 3.78125 16.34375q3.796875 6.046875 11.65625 6.046875q7.859375 0 11.640625 -6.046875q3.796875 -6.0625 3.796875 -16.34375l0 -44.90625l12.890625 0l0 44.90625q0 16.09375 -7.5 25.15625q-7.484375 9.0625 -20.828125 9.0625q-13.46875 0 -20.953125 -9.0625q-7.484375 -9.0625 -7.484375 -25.15625z" fill-rule="nonzero"></path><path fill="#ffffff" d="m104.37657 350.56265l0 3.28125l-11.71875 0l0 -82.125l11.71875 0l0 30.734375q4.390625 -4.828125 15.328125 -4.828125q10.484375 0 18.765625 8.640625q8.28125 8.625 8.28125 20.328125q0 11.6875 -8.234375 20.328125q-8.234375 8.640625 -18.59375 8.640625q-10.921875 0 -15.546875 -5.0zm4.6875 -36.625q-4.6875 5.25 -4.6875 12.65625q0 7.390625 4.6875 12.640625q4.6875 5.25 10.640625 5.25q5.953125 0 10.640625 -5.25q4.6875 -5.25 4.6875 -12.640625q0 -7.40625 -4.6875 -12.65625q-4.6875 -5.25 -10.640625 -5.25q-5.953125 0 -10.640625 5.25zm48.724823 33.0q-8.390625 -8.640625 -8.390625 -20.34375q0 -11.703125 8.28125 -20.328125q8.28125 -8.640625 18.765625 -8.640625q10.8125 0 15.328125 4.890625l0 -3.1875l11.703125 0l0 54.515625l-11.703125 0l0 -3.078125q-4.421875 4.796875 -15.125 4.796875q-10.453125 0 -18.859375 -8.625zm8.0 -33.0q-4.6875 5.25 -4.6875 12.65625q0 7.390625 4.6875 12.640625q4.6875 5.25 10.640625 5.25q5.96875 0 10.65625 -5.25q4.6875 -5.25 4.6875 -12.640625q0 -7.40625 -4.6875 -12.65625q-4.6875 -5.25 -10.65625 -5.25q-5.953125 0 -10.640625 5.25zm47.084198 39.90625l0 -82.125l11.703125 0l0 82.125l-11.703125 0zm21.757889 0l0 -82.125l11.703125 0l0 82.125l-11.703125 0zm34.507874 -39.90625q-4.6875 5.25 -4.6875 12.65625q0 7.390625 4.6875 12.640625q4.6875 5.25 10.640625 5.25q5.96875 0 10.65625 -5.25q4.6875 -5.25 4.6875 -12.640625q0 -7.40625 -4.6875 -12.65625q-4.6875 -5.25 -10.65625 -5.25q-5.953125 0 -10.640625 5.25zm-8.0 33.0q-8.39061 -8.640625 -8.39061 -20.34375q0 -11.703125 8.281235 -20.328125q8.28125 -8.640625 18.75 -8.640625q10.484375 0 18.765625 8.640625q8.28125 8.625 8.28125 20.328125q0 11.6875 -8.234375 20.328125q-8.21875 8.640625 -18.59375 8.640625q-10.453125 0 -18.859375 -8.625zm64.74118 -33.0q-4.6875 5.25 -4.6875 12.65625q0 7.390625 4.6875 12.640625q4.6875 5.25 10.640625 5.25q5.96875 0 10.65625 -5.25q4.6875 -5.25 4.6875 -12.640625q0 -7.40625 -4.6875 -12.65625q-4.6875 -5.25 -10.65625 -5.25q-5.953125 0 -10.640625 5.25zm-8.0 33.0q-8.390625 -8.640625 -8.390625 -20.34375q0 -11.703125 8.28125 -20.328125q8.28125 -8.640625 18.75 -8.640625q10.484375 0 18.765625 8.640625q8.28125 8.625 8.28125 20.328125q0 11.6875 -8.234375 20.328125q-8.21875 8.640625 -18.59375 8.640625q-10.453125 0 -18.859375 -8.625zm100.17865 -26.984375l0 33.890625l-11.703125 0l0 -33.890625q0 -4.71875 -3.40625 -7.984375q-3.40625 -3.28125 -9.125 -3.28125q-5.703125 0 -9.25 5.03125q-3.53125 5.015625 -3.53125 12.875l0 27.25l-11.71875 0l0 -54.515625l11.71875 0l-0.390625 2.21875q3.234375 -3.921875 13.046875 -3.921875q10.328125 0 17.34375 6.0q7.015625 6.0 7.015625 16.328125z" fill-rule="nonzero"></path><path fill="#ffffff" d="m97.9547 474.93765q-8.390625 -8.640625 -8.390625 -20.34375q0 -11.703125 8.28125 -20.328125q8.28125 -8.640625 18.765625 -8.640625q10.8125 0 15.328125 4.890625l0 -3.1875l11.703125 0l0 50.375q0 12.59375 -6.71875 19.0625q-6.703125 6.484375 -17.53125 6.484375l-18.703125 0l0 -11.078125l18.703125 0q6.078125 0 9.3125 -3.546875q3.234375 -3.546875 3.234375 -10.921875l0.421875 0q-4.84375 5.859375 -15.546875 5.859375q-10.453125 0 -18.859375 -8.625zm8.0 -33.0q-4.6875 5.25 -4.6875 12.65625q0 7.390625 4.6875 12.640625q4.6875 5.25 10.640625 5.25q5.96875 0 10.65625 -5.25q4.6875 -5.25 4.6875 -12.640625q0 -7.40625 -4.6875 -12.65625q-4.6875 -5.25 -10.65625 -5.25q-5.953125 0 -10.640625 5.25zm46.006073 19.28125l0 -33.890625l11.609375 0l0 33.890625q0 4.71875 3.453125 8.0q3.453125 3.265625 9.171875 3.265625q5.71875 0 9.203125 -4.96875q3.484375 -4.96875 3.484375 -12.828125l0 -27.359375l11.8125 0l0 54.515625l-11.8125 0l0.40625 -2.21875q-3.46875 4.03125 -12.953125 4.03125q-10.359375 0 -17.375 -6.046875q-7.0 -6.0625 -7.0 -16.390625zm77.46738 3.046875l14.875 -36.9375l12.718735 0l-30.79686 75.921875l-12.59375 0l9.453125 -23.515625l-21.234375 -52.40625l12.71875 0l14.859375 36.9375z" fill-rule="nonzero"></path></g></svg>

